{
	"asset":{
		"generator":"Khronos glTF Blender I/O v3.5.30",
		"version":"2.0"
	},
	"extensionsUsed":[
		"KHR_materials_sheen"
	],
	"scene":0,
	"scenes":[
		{
			"name":"Scene",
			"nodes":[
				0,
				1,
				2,
				3,
				4,
				5,
				6
			]
		}
	],
	"nodes":[
		{
			"mesh":0,
			"name":"Cilindro",
			"scale":[
				1.9348918199539185,
				1.185201644897461,
				1.9348918199539185
			],
			"translation":[
				0,
				2.4815897941589355,
				0
			]
		},
		{
			"mesh":1,
			"name":"Plano",
			"rotation":[
				0.09557133913040161,
				0.06597500294446945,
				-0.18687844276428223,
				0.9754946827888489
			],
			"scale":[
				0.29469895362854004,
				0.29550158977508545,
				0.3070625960826874
			],
			"translation":[
				0,
				1.7625054121017456,
				0.6844364404678345
			]
		},
		{
			"mesh":2,
			"name":"Plano.001",
			"rotation":[
				0.20700468122959137,
				-0.9101315140724182,
				0.03473484888672829,
				0.3572160005569458
			],
			"scale":[
				0.29469895362854004,
				0.29550155997276306,
				0.3070625960826874
			],
			"translation":[
				-0.7492220997810364,
				2.0683248043060303,
				0.7433767318725586
			]
		},
		{
			"mesh":3,
			"name":"Esfera UV.001",
			"rotation":[
				0,
				-0.9534000754356384,
				0,
				0.3017088770866394
			],
			"scale":[
				0.5310534834861755,
				0.5310534834861755,
				0.5310534834861755
			],
			"translation":[
				-1.7992511987686157,
				4.6384711265563965,
				0.9494868516921997
			]
		},
		{
			"mesh":4,
			"name":"Plano.002",
			"rotation":[
				-0.09211307018995285,
				0.819848358631134,
				-0.1886070817708969,
				0.5327205657958984
			],
			"scale":[
				0.29469895362854004,
				0.29550158977508545,
				0.3070625960826874
			],
			"translation":[
				-0.24597078561782837,
				2.0683248043060303,
				-0.09055215120315552
			]
		},
		{
			"mesh":5,
			"name":"Esfera UV.002",
			"rotation":[
				0,
				-0.9534000754356384,
				0,
				0.3017088770866394
			],
			"scale":[
				0.5310534834861755,
				0.5310534834861755,
				0.5310534834861755
			],
			"translation":[
				1.0581189393997192,
				4.221236228942871,
				1.0730345249176025
			]
		},
		{
			"mesh":6,
			"name":"Esfera UV.003",
			"rotation":[
				0,
				-0.9534000754356384,
				0,
				0.3017088770866394
			],
			"scale":[
				0.5310534834861755,
				0.5310534834861755,
				0.5310534834861755
			],
			"translation":[
				-0.09468249976634979,
				4.626322269439697,
				-1.2367780208587646
			]
		}
	],
	"materials":[
		{
			"doubleSided":true,
			"name":"Materiais",
			"pbrMetallicRoughness":{
				"baseColorFactor":[
					0.8000000715255737,
					0.040335945785045624,
					0.5507965683937073,
					1
				],
				"metallicFactor":0,
				"roughnessFactor":0.5
			}
		},
		{
			"doubleSided":true,
			"name":"Materiais.004",
			"pbrMetallicRoughness":{
				"baseColorFactor":[
					0.009969658218324184,
					0.8000000715255737,
					0.5878468751907349,
					1
				],
				"metallicFactor":0,
				"roughnessFactor":0.5
			}
		},
		{
			"doubleSided":true,
			"name":"Materiais.005",
			"pbrMetallicRoughness":{
				"baseColorFactor":[
					0.07421357929706573,
					0.5906189680099487,
					0.5583405494689941,
					1
				],
				"metallicFactor":0,
				"roughnessFactor":0.5
			}
		},
		{
			"doubleSided":true,
			"extensions":{
				"KHR_materials_sheen":{
					"sheenColorFactor":[
						0.7991029620170593,
						0.23073981702327728,
						0.08865565061569214
					],
					"sheenRoughnessFactor":1
				}
			},
			"name":"Materiais.001",
			"pbrMetallicRoughness":{}
		},
		{
			"doubleSided":true,
			"name":"Materiais.006",
			"pbrMetallicRoughness":{
				"baseColorFactor":[
					0.09530749171972275,
					0.5775805115699768,
					0.539479672908783,
					1
				],
				"metallicFactor":0,
				"roughnessFactor":0.5
			}
		},
		{
			"doubleSided":true,
			"name":"Materiais.002",
			"pbrMetallicRoughness":{
				"baseColorFactor":[
					0.7991029620170593,
					0.23073981702327728,
					0.08865565061569214,
					1
				],
				"metallicFactor":0,
				"roughnessFactor":0.5
			}
		},
		{
			"doubleSided":true,
			"name":"Materiais.003",
			"pbrMetallicRoughness":{
				"baseColorFactor":[
					0.7991029620170593,
					0.23073981702327728,
					0.08865565061569214,
					1
				],
				"metallicFactor":0,
				"roughnessFactor":0.5
			}
		}
	],
	"meshes":[
		{
			"name":"Cilindro.001",
			"primitives":[
				{
					"attributes":{
						"POSITION":0,
						"TEXCOORD_0":1,
						"NORMAL":2
					},
					"indices":3,
					"material":0
				}
			]
		},
		{
			"name":"Plano.004",
			"primitives":[
				{
					"attributes":{
						"POSITION":4,
						"TEXCOORD_0":5,
						"NORMAL":6
					},
					"indices":7,
					"material":1
				}
			]
		},
		{
			"name":"Plano.005",
			"primitives":[
				{
					"attributes":{
						"POSITION":8,
						"TEXCOORD_0":9,
						"NORMAL":10
					},
					"indices":7,
					"material":2
				}
			]
		},
		{
			"name":"Esfera UV.001",
			"primitives":[
				{
					"attributes":{
						"POSITION":11,
						"TEXCOORD_0":12,
						"NORMAL":13
					},
					"indices":14,
					"material":3
				}
			]
		},
		{
			"name":"Plano.006",
			"primitives":[
				{
					"attributes":{
						"POSITION":15,
						"TEXCOORD_0":16,
						"NORMAL":17
					},
					"indices":7,
					"material":4
				}
			]
		},
		{
			"name":"Esfera UV.003",
			"primitives":[
				{
					"attributes":{
						"POSITION":18,
						"TEXCOORD_0":19,
						"NORMAL":20
					},
					"indices":14,
					"material":5
				}
			]
		},
		{
			"name":"Esfera UV.004",
			"primitives":[
				{
					"attributes":{
						"POSITION":21,
						"TEXCOORD_0":22,
						"NORMAL":23
					},
					"indices":14,
					"material":6
				}
			]
		}
	],
	"accessors":[
		{
			"bufferView":0,
			"componentType":5126,
			"count":784,
			"max":[
				1.383975625038147,
				1,
				1.383975625038147
			],
			"min":[
				-1.383975625038147,
				-0.9999999403953552,
				-1.383975625038147
			],
			"type":"VEC3"
		},
		{
			"bufferView":1,
			"componentType":5126,
			"count":784,
			"type":"VEC2"
		},
		{
			"bufferView":2,
			"componentType":5126,
			"count":784,
			"type":"VEC3"
		},
		{
			"bufferView":3,
			"componentType":5123,
			"count":1308,
			"type":"SCALAR"
		},
		{
			"bufferView":4,
			"componentType":5126,
			"count":85,
			"max":[
				5.7429046630859375,
				9.577095985412598,
				5.135169982910156
			],
			"min":[
				-5.205223083496094,
				-3.725290298461914e-09,
				-4.891719341278076
			],
			"type":"VEC3"
		},
		{
			"bufferView":5,
			"componentType":5126,
			"count":85,
			"type":"VEC2"
		},
		{
			"bufferView":6,
			"componentType":5126,
			"count":85,
			"type":"VEC3"
		},
		{
			"bufferView":7,
			"componentType":5123,
			"count":384,
			"type":"SCALAR"
		},
		{
			"bufferView":8,
			"componentType":5126,
			"count":85,
			"max":[
				5.7429046630859375,
				9.577095985412598,
				5.135169982910156
			],
			"min":[
				-5.205223083496094,
				-3.725290298461914e-09,
				-4.891719341278076
			],
			"type":"VEC3"
		},
		{
			"bufferView":9,
			"componentType":5126,
			"count":85,
			"type":"VEC2"
		},
		{
			"bufferView":10,
			"componentType":5126,
			"count":85,
			"type":"VEC3"
		},
		{
			"bufferView":11,
			"componentType":5126,
			"count":1984,
			"max":[
				0.9999997019767761,
				1,
				0.9999993443489075
			],
			"min":[
				-0.9999990463256836,
				-1,
				-1
			],
			"type":"VEC3"
		},
		{
			"bufferView":12,
			"componentType":5126,
			"count":1984,
			"type":"VEC2"
		},
		{
			"bufferView":13,
			"componentType":5126,
			"count":1984,
			"type":"VEC3"
		},
		{
			"bufferView":14,
			"componentType":5123,
			"count":2880,
			"type":"SCALAR"
		},
		{
			"bufferView":15,
			"componentType":5126,
			"count":85,
			"max":[
				5.7429046630859375,
				9.577095985412598,
				5.135169982910156
			],
			"min":[
				-5.205223083496094,
				-3.725290298461914e-09,
				-4.891719341278076
			],
			"type":"VEC3"
		},
		{
			"bufferView":16,
			"componentType":5126,
			"count":85,
			"type":"VEC2"
		},
		{
			"bufferView":17,
			"componentType":5126,
			"count":85,
			"type":"VEC3"
		},
		{
			"bufferView":18,
			"componentType":5126,
			"count":1984,
			"max":[
				0.9999997019767761,
				1,
				0.9999993443489075
			],
			"min":[
				-0.9999990463256836,
				-1,
				-1
			],
			"type":"VEC3"
		},
		{
			"bufferView":19,
			"componentType":5126,
			"count":1984,
			"type":"VEC2"
		},
		{
			"bufferView":20,
			"componentType":5126,
			"count":1984,
			"type":"VEC3"
		},
		{
			"bufferView":21,
			"componentType":5126,
			"count":1984,
			"max":[
				0.9999997019767761,
				1,
				0.9999993443489075
			],
			"min":[
				-0.9999990463256836,
				-1,
				-1
			],
			"type":"VEC3"
		},
		{
			"bufferView":22,
			"componentType":5126,
			"count":1984,
			"type":"VEC2"
		},
		{
			"bufferView":23,
			"componentType":5126,
			"count":1984,
			"type":"VEC3"
		}
	],
	"bufferViews":[
		{
			"buffer":0,
			"byteLength":9408,
			"byteOffset":0,
			"target":34962
		},
		{
			"buffer":0,
			"byteLength":6272,
			"byteOffset":9408,
			"target":34962
		},
		{
			"buffer":0,
			"byteLength":9408,
			"byteOffset":15680,
			"target":34962
		},
		{
			"buffer":0,
			"byteLength":2616,
			"byteOffset":25088,
			"target":34963
		},
		{
			"buffer":0,
			"byteLength":1020,
			"byteOffset":27704,
			"target":34962
		},
		{
			"buffer":0,
			"byteLength":680,
			"byteOffset":28724,
			"target":34962
		},
		{
			"buffer":0,
			"byteLength":1020,
			"byteOffset":29404,
			"target":34962
		},
		{
			"buffer":0,
			"byteLength":768,
			"byteOffset":30424,
			"target":34963
		},
		{
			"buffer":0,
			"byteLength":1020,
			"byteOffset":31192,
			"target":34962
		},
		{
			"buffer":0,
			"byteLength":680,
			"byteOffset":32212,
			"target":34962
		},
		{
			"buffer":0,
			"byteLength":1020,
			"byteOffset":32892,
			"target":34962
		},
		{
			"buffer":0,
			"byteLength":23808,
			"byteOffset":33912,
			"target":34962
		},
		{
			"buffer":0,
			"byteLength":15872,
			"byteOffset":57720,
			"target":34962
		},
		{
			"buffer":0,
			"byteLength":23808,
			"byteOffset":73592,
			"target":34962
		},
		{
			"buffer":0,
			"byteLength":5760,
			"byteOffset":97400,
			"target":34963
		},
		{
			"buffer":0,
			"byteLength":1020,
			"byteOffset":103160,
			"target":34962
		},
		{
			"buffer":0,
			"byteLength":680,
			"byteOffset":104180,
			"target":34962
		},
		{
			"buffer":0,
			"byteLength":1020,
			"byteOffset":104860,
			"target":34962
		},
		{
			"buffer":0,
			"byteLength":23808,
			"byteOffset":105880,
			"target":34962
		},
		{
			"buffer":0,
			"byteLength":15872,
			"byteOffset":129688,
			"target":34962
		},
		{
			"buffer":0,
			"byteLength":23808,
			"byteOffset":145560,
			"target":34962
		},
		{
			"buffer":0,
			"byteLength":23808,
			"byteOffset":169368,
			"target":34962
		},
		{
			"buffer":0,
			"byteLength":15872,
			"byteOffset":193176,
			"target":34962
		},
		{
			"buffer":0,
			"byteLength":23808,
			"byteOffset":209048,
			"target":34962
		}
	],
	"buffers":[
		{
			"byteLength":232856,
			"uri":"data:application/octet-stream;base64,"
		}
	]
}
